<?xml version="1.0" encoding="UTF-8" standalone="no"?>
<svg width="20px" height="20px" viewBox="0 0 20 20" version="1.1" xmlns="http://www.w3.org/2000/svg" xmlns:xlink="http://www.w3.org/1999/xlink" xmlns:sketch="http://www.bohemiancoding.com/sketch/ns">
    <!-- Generator: Sketch 3.5.1 (25234) - http://www.bohemiancoding.com/sketch -->
    <title>Slice 1</title>
    <desc>Created with Sketch.</desc>
    <defs></defs>
    <g id="Page-1" stroke="none" stroke-width="1" fill="none" fill-rule="evenodd" sketch:type="MSPage">
        <g id="Group" sketch:type="MSLayerGroup" fill="#FFFFFF">
            <path d="M14.8999819,9 L20,9 C19.5,4 15.21,4.44916179e-15 10,3.49210032e-15 C4.79,2.53503885e-15 0.5,4 0,9 L5.10001812,9 C5.56328845,6.71775968 7.58104209,5 10,5 C12.4189579,5 14.4367116,6.71775968 14.8999819,9 Z M11,14.8999819 L11,20 C15.75,19.52 19.53,16 20,11 L14.8999819,11 C14.5022994,12.9591304 12.9591304,14.5022994 11,14.8999819 Z M5.10001812,11 L0,11 C0.47,16 4.25,19.52 9,20 L9,14.8999819 C7.04086962,14.5022994 5.49770059,12.9591304 5.10001812,11 Z" id="Shape" sketch:type="MSShapeGroup"></path>
        </g>
    </g>
</svg>